<svg width="51" height="48" viewBox="0 0 51 48" fill="none" xmlns="http://www.w3.org/2000/svg">
<g id="tick 1" clip-path="url(#clip0_74_1031)">
<path id="Vector" d="M0 23.961C0.42608 14.3007 4.74827 7.03685 13.3778 2.49138C16.405 0.894982 19.689 0.128411 23.1143 0.0149142C28.8692 -0.176729 34.0398 1.47921 38.6355 4.94367C39.03 5.24137 39.03 5.24323 38.6374 5.5186C37.4671 6.34285 36.3172 7.19873 35.2027 8.09926C35.0483 8.22392 34.9441 8.25183 34.7599 8.12903C31.4257 5.89816 27.7398 4.73528 23.7377 4.89157C16.3101 5.18183 10.7543 8.64442 7.1559 15.1473C5.45345 18.2247 4.73711 21.585 5.00318 25.0848C5.55206 32.2816 9.05558 37.6215 15.4077 41.0432C18.2563 42.5782 21.3505 43.2797 24.5768 43.129C31.9169 42.7866 37.4745 39.3928 40.9836 32.9458C43.7653 27.8366 43.9476 22.4594 41.9028 17.0153C41.8191 16.7902 41.8339 16.6488 41.9902 16.472C42.9931 15.324 44.0071 14.1872 45.0584 13.0838C45.2575 12.8754 45.3133 12.8903 45.4398 13.1415C46.705 15.6626 47.5125 18.3159 47.8437 21.1198C48.3163 25.122 47.8939 29.0274 46.3534 32.7467C43.114 40.5743 37.3648 45.6296 29.072 47.399C20.5802 49.2113 13.1136 46.9023 6.92891 40.7939C3.22071 37.1266 1.05497 32.6128 0.288394 27.4403C0.119079 26.2942 0.0465152 25.1406 0 23.961Z" fill="#6A3CB5"/>
<path id="Vector_2" d="M23.451 37.9006C22.2937 37.8801 21.436 37.3461 20.8871 36.3172C17.8543 30.6349 14.8215 24.9526 11.7887 19.2703C11.5692 18.8573 11.3124 18.461 11.2975 17.9679C11.2771 17.2646 11.5264 16.6878 12.0995 16.2747C12.5442 15.9529 13 15.644 13.4652 15.35C14.2168 14.8756 15.1788 15.0188 15.8226 15.6775C18.2934 18.2135 20.7681 20.7458 23.2334 23.2892C23.4287 23.4902 23.505 23.5199 23.6966 23.2743C28.7501 16.7734 34.6538 11.1785 41.4915 6.5791C43.7261 5.07573 46.0556 3.73609 48.4893 2.57693C49.2093 2.23458 49.7973 2.35924 50.2159 2.94533C50.6569 3.56305 50.6104 4.34265 50.0671 4.85245C49.0084 5.84974 47.9292 6.8247 46.865 7.8164C41.9288 12.4121 37.6214 17.5437 33.8388 23.1218C30.9623 27.3621 28.3779 31.7718 26.0019 36.3079C25.4661 37.3331 24.6325 37.8727 23.4529 37.9025L23.451 37.9006Z" fill="#6A3CB5"/>
</g>
<defs>
<clipPath id="clip0_74_1031">
<rect width="50.5118" height="48" fill="white"/>
</clipPath>
</defs>
</svg>
