<svg width="366" height="360" viewBox="0 0 366 360" fill="none" xmlns="http://www.w3.org/2000/svg">
<path d="M189.259 147.682L140.709 106.172L141.214 105.59L189.143 146.564L247.209 72.2989L270.06 88.8394L316.717 27.3422L317.338 27.8079L270.216 89.9106L247.357 73.37L189.259 147.682Z" fill="#EBEBEB"/>
<path d="M20.8353 214.372C20.8353 214.892 20.681 215.401 20.3918 215.834C20.1027 216.267 19.6918 216.604 19.211 216.803C18.7302 217.002 18.2011 217.054 17.6907 216.953C17.1803 216.851 16.7114 216.601 16.3434 216.233C15.9754 215.865 15.7248 215.396 15.6233 214.885C15.5218 214.375 15.5739 213.846 15.773 213.365C15.9722 212.884 16.3095 212.473 16.7422 212.184C17.1749 211.895 17.6836 211.741 18.204 211.741C18.9019 211.741 19.5712 212.018 20.0646 212.511C20.5581 213.005 20.8353 213.674 20.8353 214.372Z" fill="#EBEBEB"/>
<path d="M140.958 111.077C143.826 111.077 146.15 108.752 146.15 105.885C146.15 103.017 143.826 100.692 140.958 100.692C138.09 100.692 135.765 103.017 135.765 105.885C135.765 108.752 138.09 111.077 140.958 111.077Z" fill="#EBEBEB"/>
<path d="M18.4914 214.628L17.917 214.108L74.5242 151.579L87.3158 162.701L138.327 107.825L138.893 108.353L87.3701 163.78L74.5863 152.665L18.4914 214.628Z" fill="#EBEBEB"/>
<path d="M317.268 32.077C321.006 32.077 324.037 29.0467 324.037 25.3086C324.037 21.5706 321.006 18.5403 317.268 18.5403C313.53 18.5403 310.5 21.5706 310.5 25.3086C310.5 29.0467 313.53 32.077 317.268 32.077Z" fill="#EBEBEB"/>
<path d="M320.575 22.9956C319.698 24.2642 318.708 25.4514 317.618 26.5427L316.5 27.7536L316.384 27.8778L316.252 27.7769C315.422 27.2245 314.654 26.5843 313.962 25.8674C314.85 26.3161 315.69 26.8545 316.469 27.4742H316.221L317.315 26.2478C318.307 25.0728 319.398 23.9848 320.575 22.9956Z" fill="white"/>
<path d="M98.3767 94.0476C99.0365 89.2042 92.2138 85.2302 87.0832 84.811C84.6382 84.617 82.1001 84.9895 79.7793 84.1823C74.7574 82.4359 72.7936 75.947 67.8571 73.8823C64.1935 72.3299 59.971 73.7116 56.4239 75.4968C52.8767 77.282 49.3606 79.533 45.3943 79.7891C41.948 80.0064 38.199 78.7257 35.1797 80.4178C32.9287 81.6675 31.7489 84.2987 29.6765 85.789C27.6041 87.2793 25.0194 87.6053 22.489 87.745C19.9587 87.8847 17.3662 87.908 15.0687 88.9559C12.7712 90.0037 10.885 92.4254 11.3585 94.9014L98.3767 94.0476Z" fill="#EBEBEB"/>
<path d="M281.16 12.9983C281.572 9.97894 277.318 7.49515 274.12 7.239C272.568 7.11481 271.016 7.34767 269.564 6.84315C266.459 5.75649 265.179 1.71256 262.121 0.41633C259.839 -0.54614 257.207 0.315426 254.995 1.42537C252.783 2.53532 250.586 3.94798 248.118 4.10321C245.96 4.24293 243.624 3.44346 241.738 4.49907C240.341 5.27526 239.603 6.89748 238.307 7.85219C236.962 8.68429 235.402 9.10515 233.821 9.06304C232.234 9.0329 230.655 9.29604 229.164 9.83923C227.736 10.4912 226.556 12.0048 226.835 13.5494L281.16 12.9983Z" fill="#F5F5F5"/>
<path d="M338.397 81.2716C338.622 79.6494 336.333 78.3221 334.609 78.1669C333.786 78.1969 332.962 78.1239 332.157 77.9495C330.472 77.3674 329.828 75.1863 328.159 74.4955C326.933 73.9755 325.512 74.4412 324.325 75.0388C323.137 75.6365 321.958 76.3894 320.622 76.4748C319.466 76.5524 318.209 76.1255 317.199 76.6921C316.423 77.1113 316.051 77.9806 315.352 78.4929C314.628 78.9407 313.789 79.1673 312.938 79.1449C312.092 79.124 311.249 79.2635 310.454 79.5562C310.059 79.7093 309.725 79.9866 309.501 80.3464C309.277 80.7061 309.176 81.1289 309.213 81.551L338.397 81.2716Z" fill="#F5F5F5"/>
<path d="M80.3996 39.474C80.617 37.8518 78.3272 36.5167 76.6119 36.3693C75.7884 36.3993 74.9644 36.3263 74.1591 36.1519C72.4748 35.5698 71.8306 33.3887 70.1618 32.6979C68.9276 32.1779 67.515 32.6436 66.3274 33.2412C65.1398 33.8389 63.9988 34.5918 62.625 34.6772C61.4685 34.7548 60.211 34.3279 59.202 34.8868C58.4258 35.3137 58.0533 36.183 57.3547 36.6953C56.6302 37.1418 55.7916 37.3683 54.9407 37.3473C54.0942 37.3258 53.2513 37.4654 52.457 37.7586C52.0591 37.9133 51.7222 38.1929 51.4968 38.5554C51.2715 38.9179 51.1699 39.3438 51.2073 39.769L80.3996 39.474Z" fill="#FAFAFA"/>
<path d="M95.7993 204.918L111.199 170.704L127.018 161.203L136.844 139.819L165.066 146.425L186.116 210.996L153.532 227.008L127.018 243.176L95.7993 204.918Z" fill="#F5F5F5"/>
<path d="M365.105 304.076L337.247 248.47L324.355 229.174L309.157 158.89L290.855 143.669L272.467 169.283L247.349 175.539L224.188 197.692L270.806 247.158L298.283 276.133L319.744 316.215L360.936 355.157C360.517 354.776 365.105 304.076 365.105 304.076Z" fill="#EBEBEB"/>
<path d="M0.89502 360L3.73586 322.262L18.9103 298.674L28.8455 253.779L46.9073 243.176L69.2227 205.648L90.4746 191.265L134.57 234.871L163.677 203.521L186.116 210.996L176.872 222.491L153.532 227.008L107.558 267.098L71.8074 286.806L62.2758 304.021L41.5905 307.049L0.89502 360Z" fill="#EBEBEB"/>
<path d="M107.233 239.639C105.983 241.416 103.554 240.826 102.428 239.739C101.303 238.653 100.829 237.077 100.395 235.571C99.4088 232.133 98.4075 228.531 99.1449 225.031C99.3212 223.967 99.7886 222.973 100.495 222.159C100.851 221.758 101.306 221.459 101.814 221.29C102.322 221.121 102.866 221.088 103.391 221.196C104.617 221.522 105.378 222.749 105.929 223.859C107.545 227.224 108.394 230.906 108.413 234.64C108.525 236.386 108.114 238.127 107.233 239.639Z" fill="#6A3CB5"/>
<g opacity="0.2">
<path d="M107.233 239.638C105.983 241.416 103.554 240.826 102.428 239.739C101.303 238.653 100.829 237.077 100.395 235.571C99.4088 232.133 98.4075 228.531 99.1449 225.031C99.3212 223.967 99.7886 222.973 100.495 222.159C100.851 221.758 101.306 221.459 101.814 221.29C102.322 221.121 102.866 221.088 103.391 221.196C104.617 221.522 105.378 222.749 105.929 223.859C107.545 227.224 108.394 230.906 108.413 234.64C108.525 236.386 108.114 238.127 107.233 239.638Z" fill="black"/>
</g>
<path d="M102.552 248.666C100.459 247.683 98.1056 247.398 95.838 247.851C94.5987 247.961 93.432 248.483 92.5237 249.333C91.6931 250.249 91.5379 251.856 92.5237 252.64C93.1361 253.056 93.8745 253.245 94.6116 253.175C96.3891 253.175 98.3528 252.841 99.7732 253.905C100.549 254.518 101.116 255.527 102.102 255.83C102.586 255.934 103.091 255.881 103.544 255.679C103.996 255.476 104.372 255.135 104.617 254.704C105.08 253.817 105.183 252.786 104.904 251.825C104.784 251.152 104.508 250.516 104.1 249.968C103.692 249.42 103.162 248.974 102.552 248.666Z" fill="#6A3CB5"/>
<path d="M110.655 242.192C110.016 241.353 109.591 240.372 109.415 239.332C109.239 238.292 109.318 237.226 109.646 236.223C110.334 234.221 111.558 232.447 113.185 231.093C115.034 229.448 117.185 228.18 119.519 227.359C120.422 226.993 121.394 226.828 122.368 226.878C122.854 226.905 123.326 227.051 123.743 227.303C124.159 227.554 124.508 227.904 124.758 228.322C125.418 229.595 124.758 231.132 124.091 232.389C122.874 234.607 121.483 236.725 119.93 238.723C118.689 240.329 117.26 241.921 115.359 242.642C113.457 243.364 111.478 243.287 110.477 241.967" fill="#6A3CB5"/>
<path d="M107.318 266.533C107.253 266.279 107.214 266.019 107.201 265.757C107.147 265.167 107.069 264.422 106.984 263.545C106.874 262.456 106.709 261.373 106.487 260.301C106.199 258.995 105.804 257.715 105.307 256.474C104.826 255.232 104.167 254.066 103.351 253.012C102.695 252.148 101.851 251.445 100.883 250.955C100.229 250.63 99.5265 250.41 98.803 250.303C98.5411 250.29 98.2811 250.251 98.0269 250.187C98.3004 250.158 98.5761 250.158 98.8496 250.187C99.5995 250.239 100.334 250.429 101.015 250.746C102.034 251.225 102.926 251.934 103.623 252.818C104.473 253.889 105.156 255.082 105.649 256.358C106.151 257.615 106.543 258.914 106.821 260.238C107.031 261.323 107.176 262.42 107.256 263.522C107.326 264.461 107.349 265.222 107.364 265.749C107.369 266.012 107.353 266.274 107.318 266.533Z" fill="#263238"/>
<path d="M107.163 264.834C107.143 264.708 107.143 264.579 107.163 264.453V263.382C107.163 262.451 107.163 261.1 107.116 259.431C107.038 256.094 106.751 251.491 106.192 246.43C105.634 241.369 104.896 236.821 104.221 233.553C104.058 232.777 103.903 232.001 103.747 231.357C103.592 230.712 103.483 230.146 103.359 229.696C103.235 229.245 103.181 228.919 103.111 228.655C103.071 228.535 103.05 228.41 103.049 228.283C103.102 228.395 103.144 228.512 103.173 228.632C103.258 228.904 103.359 229.245 103.491 229.665C103.623 230.084 103.771 230.666 103.934 231.31C104.097 231.954 104.275 232.684 104.454 233.507C105.376 237.764 106.068 242.067 106.526 246.399C107.085 251.468 107.302 256.086 107.357 259.423C107.357 261.1 107.357 262.451 107.295 263.382C107.295 263.824 107.248 264.158 107.232 264.461C107.219 264.587 107.195 264.711 107.163 264.834Z" fill="#263238"/>
<path d="M107.139 255.931C107.112 255.556 107.112 255.18 107.139 254.805C107.139 254.083 107.279 253.043 107.481 251.763C107.729 250.268 108.061 248.788 108.474 247.331C108.966 245.539 109.586 243.786 110.33 242.084C111.613 238.953 113.454 236.081 115.763 233.608C116.163 233.184 116.591 232.787 117.044 232.42C117.238 232.249 117.416 232.086 117.595 231.954L118.091 231.613C118.388 231.386 118.702 231.184 119.031 231.007C117.94 231.864 116.903 232.786 115.926 233.771C113.69 236.264 111.894 239.119 110.617 242.215C109.885 243.907 109.262 245.644 108.754 247.416C108.265 249.046 107.978 250.521 107.698 251.801C107.419 253.082 107.333 254.13 107.256 254.813C107.245 255.188 107.206 255.562 107.139 255.931Z" fill="#263238"/>
<path d="M331.069 289.167C330.349 289.177 329.639 289.333 328.982 289.626C328.324 289.918 327.732 290.34 327.242 290.867C326.267 291.927 325.548 293.196 325.139 294.577C324.277 297.216 324.549 300.406 325.139 303.115C328.096 302.238 330.052 299.234 330.952 297.682C332.365 295.182 333.413 289.803 331.046 289.19" fill="#6A3CB5"/>
<path d="M320.521 306.305C321.035 305.688 321.378 304.946 321.514 304.154C321.65 303.363 321.576 302.549 321.297 301.795C321.005 301.047 320.568 300.363 320.009 299.785C319.451 299.207 318.783 298.745 318.045 298.427C317.723 298.242 317.363 298.131 316.993 298.102C316.623 298.072 316.251 298.125 315.903 298.256C315.602 298.43 315.353 298.68 315.182 298.981C315.01 299.283 314.921 299.624 314.925 299.971C314.948 300.67 315.154 301.35 315.523 301.943C316.679 304.015 318.177 305.824 320.506 306.305" fill="#6A3CB5"/>
<path d="M319.923 314.983C320.011 314.809 320.071 314.624 320.102 314.432C320.195 314.067 320.319 313.539 320.459 312.879C320.845 311.167 321.002 309.41 320.924 307.656C320.831 305.884 320.259 304.17 319.271 302.696C318.964 302.258 318.604 301.859 318.2 301.508C318.063 301.365 317.9 301.249 317.719 301.167C318.218 301.68 318.674 302.233 319.085 302.82C320.003 304.283 320.537 305.955 320.637 307.679C320.71 309.408 320.585 311.14 320.265 312.841C320.107 313.547 319.993 314.263 319.923 314.983Z" fill="#263238"/>
<path d="M329.804 293.172C329.617 293.433 329.456 293.711 329.322 294.003C329.027 294.554 328.616 295.345 328.119 296.331C327.126 298.303 325.791 301.058 324.409 304.132C323.027 307.206 321.832 310.023 321.009 312.08C320.59 313.105 320.233 313.935 320.055 314.517C319.925 314.81 319.822 315.114 319.744 315.425C319.912 315.153 320.052 314.864 320.163 314.564L321.211 312.165C322.088 310.132 323.307 307.337 324.696 304.264C326.086 301.19 327.382 298.427 328.321 296.424L329.431 294.049C329.576 293.766 329.701 293.473 329.804 293.172Z" fill="#263238"/>
<path d="M323.804 309.433C324.724 308.008 325.971 306.823 327.441 305.977C328.911 305.13 330.562 304.647 332.256 304.566C333.11 304.566 334.142 304.714 334.499 305.49C334.856 306.266 334.313 307.174 333.723 307.819C332.436 309.078 330.805 309.927 329.036 310.262C327.267 310.596 325.438 310.4 323.78 309.697" fill="#6A3CB5"/>
<path d="M330.976 306.833C330.791 306.806 330.602 306.806 330.417 306.833C330.196 306.831 329.976 306.847 329.757 306.88C329.468 306.904 329.181 306.943 328.896 306.996C328.154 307.135 327.428 307.351 326.73 307.64C325.871 307.994 325.054 308.442 324.293 308.975C323.543 309.521 322.854 310.146 322.236 310.838C321.737 311.408 321.298 312.027 320.924 312.685C320.776 312.935 320.644 313.195 320.529 313.462C320.429 313.656 320.346 313.859 320.28 314.067C320.203 314.238 320.149 314.418 320.117 314.603C320.179 314.603 320.443 313.873 321.111 312.802C321.502 312.171 321.951 311.579 322.454 311.032C323.676 309.696 325.172 308.637 326.839 307.927C327.517 307.633 328.221 307.401 328.942 307.237C330.177 306.903 330.976 306.895 330.976 306.833Z" fill="#263238"/>
<path d="M264.076 323.738C263.926 323.752 263.776 323.752 263.626 323.738L262.33 323.777L257.51 323.839L241.21 323.901L241.365 323.831L238.509 327.309L226.167 342.243L222.387 346.737L221.347 347.948C221.233 348.096 221.103 348.231 220.959 348.351C221.055 348.19 221.164 348.037 221.285 347.893L222.271 346.636L225.942 342.064L238.198 327.053C239.176 325.865 240.139 324.724 241.054 323.575L241.117 323.505H241.21L257.51 323.575L262.33 323.637H263.626C263.779 323.654 263.93 323.688 264.076 323.738Z" fill="#263238"/>
<path d="M181.785 289.415L133.545 287.832L120.179 305.141L99.0051 314.564L87.5098 338.959L100.891 323.428L126.645 319.112L144.986 299.995L181.785 289.415Z" fill="#F5F5F5"/>
<path d="M0.89502 359.171C0.89502 359.171 1.12011 358.853 1.58583 358.24L3.65048 355.523L11.653 345.045C18.6386 335.924 28.7989 322.675 41.4818 306.142V306.096H41.5361L62.2215 303.053L62.1128 303.123C65.1011 297.689 68.3223 291.922 71.6289 285.899H71.6754L107.38 266.176L153.431 226.032H153.47H153.524L176.856 221.515L176.74 221.584L188.631 206.783L199.886 192.811L199.963 192.718H200.088L225.492 198.369H225.554L225.593 198.415L298.407 275.258C306.479 290.378 313.659 303.806 319.83 315.355L350.101 344.074L358.142 351.72L360.207 353.699C360.673 354.142 360.898 354.374 360.898 354.374L360.184 353.722L358.096 351.774L350.008 344.168L319.613 315.526L298.128 275.452L225.267 198.687L225.368 198.749L200.002 193.067L200.204 192.998L188.949 206.969L177.027 221.786L176.981 221.848H176.911L153.571 226.358L153.664 226.311L107.675 266.394L71.916 286.078L71.9859 286.016L62.4388 303.231V303.294H62.3612L41.6681 306.313L41.7535 306.259C29.0395 322.768 18.8482 335.987 11.8315 345.068L3.71258 355.57L1.61687 358.263C1.1434 358.868 0.89502 359.171 0.89502 359.171Z" fill="#263238"/>
<path d="M186.116 288.818L185.922 288.888L185.333 289.066L183.058 289.718L174.52 292.101L145.025 300.181L145.118 300.134C141.486 303.915 137.558 308.013 133.476 312.251L126.762 319.236L126.715 319.283H126.653L100.922 323.568L101.015 323.513L89.7297 336.499L86.625 340.061L85.7945 340.985C85.6082 341.187 85.4995 341.288 85.4995 341.288C85.4995 341.288 85.5849 341.171 85.7634 340.954C85.9419 340.737 86.2136 340.403 86.5396 339.999C87.2537 339.146 88.286 337.935 89.5978 336.382L100.783 323.304L100.821 323.257H100.876L126.614 318.91L126.505 318.965C128.686 316.691 130.93 314.354 133.212 311.979L144.854 299.871H144.893H144.94L174.435 291.922L182.973 289.656L185.301 289.066L185.891 288.919L186.116 288.818Z" fill="#263238"/>
<path d="M244.385 272.339C244.385 272.448 233.89 272.541 220.944 272.541C207.997 272.541 197.495 272.448 197.495 272.339C197.495 272.231 207.989 272.137 220.944 272.137C233.898 272.137 244.385 272.254 244.385 272.339Z" fill="#263238"/>
<path d="M248.297 147.373C248.297 147.373 248.243 142.957 248.056 142.926L238.983 144.944C238.89 145.518 237.749 152.76 237.943 153.482L248.126 156.299C248.126 156.299 248.297 147.629 248.297 147.373Z" fill="#FFBE9D"/>
<path d="M248.304 155.624C248.304 155.624 248.304 155.547 248.351 155.43C248.46 154.437 248.351 150.121 247.87 149.942C247.388 149.764 245.805 150.067 245.696 150.641C245.588 151.215 245.945 156.074 245.945 156.074C245.945 156.074 246.046 156.851 247.334 157.021C248.126 157.13 248.304 155.624 248.304 155.624Z" fill="#FFBE9D"/>
<path d="M245.719 157.177C245.719 157.177 245.719 157.099 245.766 156.982C245.867 155.989 245.805 151.673 245.277 151.495C244.749 151.316 243.212 151.619 243.111 152.193C243.011 152.768 243.352 157.627 243.352 157.627C243.352 157.627 243.461 158.403 244.749 158.574C245.541 158.682 245.719 157.177 245.719 157.177Z" fill="#FFBE9D"/>
<path d="M243.19 157.953C243.19 157.953 243.19 157.875 243.228 157.751C243.337 156.765 243.275 152.45 242.747 152.263C242.219 152.077 240.683 152.395 240.582 152.962C240.481 153.528 240.822 158.395 240.822 158.395C240.822 158.395 240.931 159.171 242.212 159.35C243.011 159.459 243.19 157.953 243.19 157.953Z" fill="#FFBE9D"/>
<path d="M240.667 158.682C240.667 158.682 240.667 158.605 240.713 158.481C240.814 157.495 240.752 153.179 240.224 152.993C239.697 152.807 238.16 153.125 238.059 153.691C237.958 154.258 238.307 159.125 238.307 159.125C238.307 159.125 238.408 159.901 239.697 160.079C240.488 160.18 240.667 158.682 240.667 158.682Z" fill="#FFBE9D"/>
<path d="M245.681 151.898C245.832 152.589 245.9 153.295 245.883 154.002C245.953 154.695 245.93 155.395 245.813 156.082C245.662 155.391 245.595 154.685 245.611 153.979C245.54 153.285 245.564 152.586 245.681 151.898Z" fill="#EB996E"/>
<path d="M243.135 151.883C243.386 153.867 243.456 155.87 243.344 157.867C243.18 156.88 243.1 155.88 243.104 154.879C243.025 153.881 243.035 152.879 243.135 151.883Z" fill="#EB996E"/>
<g opacity="0.78">
<path d="M240.551 152.1C240.801 154.085 240.872 156.088 240.76 158.085C240.596 157.097 240.515 156.097 240.52 155.096C240.44 154.099 240.45 153.096 240.551 152.1Z" fill="#EB996E"/>
</g>
<path d="M238.928 145.184C238.928 145.184 235.335 153.342 235.862 153.847C236.54 154.351 237.268 154.783 238.036 155.135L238.928 145.184Z" fill="#FFBE9D"/>
<path d="M219.065 35.7422L216.434 66.2541L201.151 65.0355C201.058 63.2503 201.151 56.35 201.151 56.35C201.151 56.35 194.794 55.3565 194.716 48.9995C194.677 45.8947 195.12 39.53 195.586 33.7785C195.832 30.712 197.27 27.8642 199.592 25.8458C201.913 23.8275 204.934 22.7993 208.005 22.9817C209.577 23.0694 211.116 23.472 212.53 24.1659C213.944 24.8597 215.204 25.8305 216.236 27.0206C217.268 28.2108 218.05 29.5961 218.536 31.0943C219.022 32.5925 219.202 34.1731 219.065 35.7422Z" fill="#FFBE9D"/>
<path d="M201.174 56.2568C204.108 56.3226 206.994 55.5118 209.464 53.9283C209.464 53.9283 207.508 58.5078 201.159 57.9334L201.174 56.2568Z" fill="#EB996E"/>
<path d="M198.078 38.2338C198.077 38.4709 198.168 38.699 198.332 38.871C198.495 39.0429 198.718 39.1455 198.955 39.1574C199.188 39.1724 199.418 39.0942 199.594 38.94C199.77 38.7858 199.878 38.5681 199.894 38.3347C199.896 38.0978 199.806 37.8694 199.642 37.6983C199.478 37.5272 199.254 37.4269 199.017 37.4188C198.901 37.4093 198.785 37.4229 198.675 37.459C198.565 37.495 198.463 37.5527 198.376 37.6286C198.288 37.7045 198.217 37.7972 198.166 37.9011C198.114 38.005 198.084 38.1181 198.078 38.2338Z" fill="#263238"/>
<path d="M196.975 36.9841C197.084 37.1083 197.751 36.596 198.753 36.596C199.754 36.596 200.445 37.0928 200.553 36.9686C200.662 36.8444 200.491 36.7047 200.173 36.4796C199.757 36.1842 199.259 36.0255 198.749 36.0255C198.238 36.0255 197.741 36.1842 197.324 36.4796C197.022 36.7202 196.898 36.9298 196.975 36.9841Z" fill="#263238"/>
<path d="M207.462 38.2416C207.462 38.4779 207.553 38.7052 207.716 38.8759C207.88 39.0466 208.103 39.1475 208.339 39.1575C208.454 39.1659 208.57 39.1512 208.68 39.1142C208.79 39.0772 208.891 39.0186 208.978 38.942C209.065 38.8653 209.135 38.7722 209.185 38.6679C209.236 38.5636 209.265 38.4503 209.27 38.3347C209.275 38.0985 209.186 37.8701 209.023 37.6988C208.861 37.5275 208.637 37.4269 208.401 37.4188C208.285 37.4093 208.168 37.4232 208.058 37.4597C207.947 37.4962 207.845 37.5546 207.757 37.6313C207.67 37.7081 207.598 37.8016 207.548 37.9065C207.497 38.0113 207.468 38.1253 207.462 38.2416Z" fill="#263238"/>
<path d="M206.577 37.1549C206.693 37.2713 207.353 36.759 208.354 36.7668C209.355 36.7746 210.046 37.2558 210.155 37.1394C210.263 37.0229 210.093 36.8677 209.782 36.6426C209.357 36.3516 208.854 36.1973 208.338 36.2002C207.83 36.1946 207.334 36.3554 206.926 36.6581C206.623 36.8988 206.522 37.1549 206.577 37.1549Z" fill="#263238"/>
<path d="M203.03 44.4122C202.525 44.2561 202.004 44.1598 201.477 44.1251C201.229 44.1251 200.988 44.0552 200.949 43.8844C200.919 43.6149 200.976 43.3428 201.112 43.1082C201.353 42.5028 201.594 41.8663 201.889 41.2066C202.572 39.5976 203.125 37.9364 203.542 36.239C202.727 37.7872 202.039 39.3992 201.485 41.0591C201.244 41.7266 201.004 42.3631 200.779 42.9685C200.623 43.2695 200.579 43.6161 200.655 43.9465C200.689 44.0358 200.744 44.1156 200.816 44.179C200.887 44.2425 200.973 44.2879 201.066 44.3113C201.202 44.3525 201.343 44.3735 201.485 44.3734C201.996 44.4506 202.515 44.4637 203.03 44.4122Z" fill="#263238"/>
<path d="M205.909 45.0875C205.746 45.0875 205.746 46.1431 204.838 46.896C203.93 47.6489 202.804 47.5325 202.797 47.6722C202.789 47.8119 203.045 47.874 203.526 47.8896C204.148 47.8984 204.753 47.6867 205.234 47.2919C205.695 46.9177 205.991 46.3767 206.057 45.7861C206.095 45.3437 205.979 45.0875 205.909 45.0875Z" fill="#263238"/>
<path d="M206.328 33.3361C206.421 33.6077 207.399 33.4758 208.548 33.6155C209.697 33.7552 210.62 34.0657 210.768 33.8328C210.915 33.6 210.675 33.468 210.302 33.2119C209.807 32.8911 209.243 32.6916 208.657 32.6297C208.069 32.5637 207.475 32.6328 206.918 32.8315C206.499 33.0023 206.281 33.2119 206.328 33.3361Z" fill="#263238"/>
<path d="M197.332 34.1588C197.503 34.3839 198.178 34.1588 198.985 34.1588C199.792 34.1588 200.483 34.3063 200.639 34.0734C200.794 33.8406 200.6 33.7397 200.305 33.5301C199.901 33.2788 199.433 33.1521 198.958 33.1659C198.483 33.1797 198.023 33.3334 197.635 33.6077C197.355 33.8251 197.254 34.0502 197.332 34.1588Z" fill="#263238"/>
<path d="M223.56 27.6C223.599 27.0063 223.417 26.419 223.048 25.9517C222.68 25.4843 222.152 25.1701 221.565 25.0697C221.816 24.4993 221.879 23.864 221.744 23.2556C221.61 22.6472 221.285 22.0974 220.817 21.6858C220.35 21.2742 219.763 21.0223 219.142 20.9664C218.522 20.9105 217.9 21.0536 217.366 21.375C217.186 20.684 216.816 20.0573 216.297 19.5665C215.779 19.0756 215.133 18.7403 214.433 18.5987C213.733 18.4571 213.008 18.515 212.339 18.7657C211.671 19.0164 211.086 19.4499 210.652 20.0167C210.204 19.4858 209.627 19.0794 208.976 18.8369C208.325 18.5944 207.622 18.524 206.936 18.6325C206.25 18.741 205.604 19.0247 205.059 19.4562C204.515 19.8877 204.091 20.4524 203.829 21.0956C203.352 20.6923 202.795 20.3946 202.194 20.2218C201.594 20.049 200.964 20.0052 200.345 20.0931C199.726 20.1811 199.133 20.3989 198.605 20.7321C198.076 21.0654 197.624 21.5067 197.278 22.027C196.582 21.7767 195.845 21.6583 195.105 21.6777C194.628 21.6899 194.163 21.8314 193.759 22.087C193.356 22.3426 193.03 22.7028 192.815 23.1292C192.677 23.4943 192.666 23.8953 192.784 24.2673C192.903 24.6393 193.143 24.9603 193.467 25.1783C193.189 25.0888 192.896 25.0579 192.605 25.0876C192.315 25.1172 192.034 25.2068 191.78 25.3506C191.526 25.4945 191.304 25.6894 191.129 25.9232C190.954 26.157 190.83 26.4245 190.764 26.7089C190.697 26.9932 190.691 27.2882 190.744 27.5752C190.798 27.8622 190.91 28.135 191.075 28.3763C191.239 28.6176 191.452 28.8222 191.699 28.9772C191.947 29.1322 192.224 29.2341 192.512 29.2766C192.309 29.3805 192.139 29.5399 192.022 29.7363C191.905 29.9327 191.847 30.1581 191.853 30.3866C191.939 30.7656 192.121 31.1161 192.382 31.4043C192.643 31.6924 192.974 31.9086 193.343 32.0321C195.222 32.7115 197.285 32.6783 199.141 31.9389C201.019 31.3102 202.758 30.3245 204.621 29.6104C206.484 28.8963 209.596 27.7087 211.467 28.3685C211.741 28.4669 212.002 28.5999 212.243 28.7643C213.248 29.5655 213.909 30.7207 214.09 31.9933C214.094 32.0346 214.094 32.0761 214.09 32.1174C214.339 33.9337 214.3 35.7733 214.564 37.5508C214.736 39.3869 215.521 41.1117 216.791 42.4485C217.343 42.9608 218.344 43.3178 218.771 42.7124C218.928 42.4647 219.006 42.1751 218.996 41.8819C219.244 38.7228 219.927 35.8199 220.292 32.7306C220.759 31.9503 221.34 31.244 222.015 30.6349C222.874 29.8389 223.422 28.7631 223.56 27.6Z" fill="#263238"/>
<path d="M204.605 24.4022C204.495 24.1345 204.465 23.8404 204.52 23.5561C204.588 22.7581 204.951 22.014 205.537 21.4682C205.981 21.0668 206.527 20.7935 207.114 20.6774C207.702 20.5612 208.31 20.6065 208.874 20.8084C209.217 20.9209 209.532 21.1041 209.8 21.3461C210.067 21.5881 210.281 21.8835 210.427 22.2133C210.574 22.5876 210.59 23.0006 210.473 23.3853C210.416 23.5912 210.312 23.7811 210.17 23.94C210.027 24.0989 209.849 24.2226 209.651 24.3012C209.449 24.381 209.231 24.41 209.016 24.3857C208.801 24.3613 208.595 24.2843 208.416 24.1615C208.25 24.029 208.121 23.8556 208.043 23.6583C207.964 23.461 207.937 23.2466 207.966 23.0361C208.004 22.6472 208.187 22.2869 208.478 22.027C208.747 21.789 209.065 21.6139 209.41 21.5147C209.979 21.3413 210.579 21.3007 211.166 21.3963C211.753 21.4918 212.31 21.7209 212.794 22.0658C213.171 22.3379 213.457 22.7163 213.617 23.1525C213.729 23.4824 213.748 23.8371 213.671 24.1771C213.524 24.7359 213.205 24.9067 213.205 24.8912C213.359 24.6553 213.464 24.3916 213.516 24.115C213.561 23.8054 213.523 23.4896 213.407 23.1991C213.241 22.8217 212.972 22.4988 212.631 22.2676C212.178 21.97 211.664 21.7766 211.128 21.7014C210.591 21.6263 210.044 21.6712 209.526 21.833C209.237 21.9018 208.973 22.0526 208.766 22.2673C208.56 22.482 208.419 22.7516 208.362 23.0438C208.34 23.1884 208.356 23.3363 208.409 23.4726C208.462 23.6089 208.55 23.7288 208.665 23.82C208.788 23.9028 208.929 23.954 209.077 23.9689C209.225 23.9838 209.374 23.962 209.511 23.9054C209.786 23.768 209.997 23.5301 210.101 23.2411C210.205 22.952 210.194 22.634 210.07 22.353C209.943 22.0723 209.759 21.8207 209.531 21.6138C209.303 21.4068 209.034 21.2489 208.742 21.1499C208.236 20.9667 207.691 20.9182 207.16 21.0094C206.629 21.1006 206.131 21.3282 205.715 21.67C205.158 22.1655 204.785 22.8362 204.66 23.5716C204.59 24.0994 204.66 24.4022 204.605 24.4022Z" fill="#455A64"/>
<path d="M212.329 20.3427C212.512 20.2727 212.707 20.2359 212.903 20.234C213.436 20.1828 213.973 20.1984 214.502 20.2806C215.317 20.3952 216.07 20.7775 216.644 21.3673C217.009 21.7438 217.239 22.2299 217.299 22.7505C217.36 23.2711 217.247 23.797 216.978 24.2469C216.883 24.3942 216.768 24.5275 216.636 24.6428L216.427 24.3013C216.677 24.212 216.945 24.1838 217.208 24.2189C217.471 24.254 217.722 24.3514 217.94 24.5031C218.35 24.7627 218.643 25.1721 218.755 25.6441C218.834 26.0257 218.83 26.4196 218.744 26.7997C218.658 27.1797 218.493 27.5372 218.259 27.8484C217.96 28.2497 217.592 28.5941 217.172 28.8652C216.877 29.0593 216.706 29.1369 216.691 29.1136C216.675 29.0903 216.823 28.9739 217.079 28.7488C217.445 28.4431 217.766 28.0878 218.034 27.6932C218.223 27.4087 218.354 27.0887 218.416 26.7526C218.479 26.4164 218.473 26.071 218.398 25.7372C218.303 25.3591 218.063 25.0333 217.731 24.8291C217.563 24.7151 217.372 24.6418 217.171 24.6149C216.97 24.5879 216.766 24.6081 216.574 24.6738L215.534 25.093L216.373 24.3168C216.477 24.2258 216.568 24.1214 216.644 24.0063C216.878 23.623 216.969 23.1694 216.9 22.7256C216.839 22.3052 216.652 21.9131 216.365 21.6001C215.852 21.0567 215.181 20.6875 214.448 20.5445C213.198 20.3117 212.329 20.4281 212.329 20.3427Z" fill="#455A64"/>
<path d="M221.534 27.0645C221.581 27.0645 221.697 27.2818 221.697 27.6699C221.69 28.1933 221.493 28.6963 221.144 29.0858C220.794 29.4754 220.315 29.7251 219.796 29.7889C219.407 29.7889 219.175 29.7423 219.182 29.688C219.799 29.5383 220.369 29.2398 220.843 28.8187C221.217 28.3008 221.454 27.6977 221.534 27.0645Z" fill="#455A64"/>
<path d="M194.375 23.7579C194.535 23.5526 194.74 23.3855 194.973 23.2689C195.752 22.8369 196.65 22.667 197.533 22.7844C198.417 22.9018 199.239 23.3003 199.878 23.9209C200.12 24.1451 200.314 24.4162 200.447 24.7179C200.581 25.0195 200.651 25.3453 200.654 25.6751C200.632 26.0594 200.461 26.4199 200.177 26.6795C199.892 26.9391 199.518 27.0773 199.133 27.0645C198.934 27.0415 198.744 26.9653 198.584 26.8437C198.424 26.7221 198.3 26.5598 198.225 26.3737C198.077 26.0386 198.052 25.6619 198.155 25.3103C198.255 24.9892 198.432 24.6977 198.672 24.462C198.912 24.2263 199.206 24.0538 199.529 23.9597C200.084 23.7651 200.689 23.7651 201.244 23.9597C201.711 24.1313 202.139 24.3953 202.502 24.7359C203.012 25.2204 203.437 25.7871 203.759 26.4125C203.896 26.6282 203.998 26.8639 204.062 27.1111C203.896 26.9181 203.747 26.7102 203.619 26.4901C203.264 25.911 202.824 25.3878 202.315 24.9377C201.966 24.6082 201.537 24.3743 201.071 24.2587C200.604 24.1432 200.116 24.1498 199.653 24.278C199.394 24.3568 199.157 24.4966 198.962 24.6856C198.768 24.8747 198.621 25.1075 198.535 25.3646C198.388 25.8769 198.628 26.5755 199.172 26.6143C199.443 26.6092 199.703 26.5028 199.899 26.3161C200.096 26.1294 200.216 25.8758 200.235 25.6053C200.233 25.3312 200.176 25.0604 200.068 24.8086C199.96 24.5567 199.803 24.3288 199.606 24.1383C198.911 23.4395 197.976 23.0316 196.991 22.9973C196.321 22.9659 195.653 23.0936 195.043 23.3698C194.828 23.5122 194.605 23.6418 194.375 23.7579Z" fill="#455A64"/>
<path d="M216.923 38.6141C217.032 38.5676 221.293 37.3257 221.153 41.6723C221.013 46.0189 216.682 44.9789 216.674 44.8547C216.667 44.7305 216.923 38.6141 216.923 38.6141Z" fill="#FFBE9D"/>
<path d="M218.057 43.2557C218.057 43.2557 218.135 43.3101 218.259 43.3722C218.441 43.4436 218.643 43.4436 218.825 43.3722C219.111 43.2021 219.346 42.9595 219.506 42.6691C219.667 42.3787 219.748 42.0508 219.741 41.7189C219.763 41.3461 219.705 40.973 219.57 40.6245C219.533 40.4883 219.463 40.3632 219.367 40.2592C219.271 40.1553 219.152 40.0757 219.019 40.0268C218.932 39.9988 218.838 40.003 218.754 40.0386C218.67 40.0742 218.602 40.1389 218.561 40.2208C218.499 40.3373 218.523 40.4226 218.499 40.4304C218.476 40.4382 218.414 40.3606 218.453 40.182C218.481 40.0743 218.543 39.9787 218.631 39.9104C218.754 39.827 218.904 39.7937 219.05 39.8172C219.229 39.8578 219.394 39.9432 219.529 40.0655C219.665 40.1878 219.768 40.3428 219.827 40.5158C219.996 40.8985 220.071 41.3166 220.044 41.7344C220.054 42.1219 219.949 42.5036 219.741 42.8311C219.534 43.1587 219.234 43.4172 218.88 43.574C218.763 43.6032 218.642 43.6065 218.524 43.5837C218.406 43.5609 218.294 43.5126 218.197 43.442C218.065 43.3644 218.041 43.2635 218.057 43.2557Z" fill="#EB996E"/>
<path d="M189.967 249.892L192.792 262.901C192.792 262.901 180.521 270.135 180.808 272.588L206.212 268.024L202.642 247.579L189.967 249.892Z" fill="#263238"/>
<path d="M206.212 268.024L205.77 265.975L181.568 271.121C181.568 271.121 180.528 271.819 180.792 272.588L206.212 268.024Z" fill="#455A64"/>
<path d="M218.872 251.32L219.291 264.624C219.291 264.624 205.91 269.522 205.747 271.982L231.57 272.099L231.764 251.343L218.872 251.32Z" fill="#263238"/>
<g opacity="0.6">
<path d="M231.57 272.099L231.508 270.003L206.771 270.678C206.771 270.678 205.622 271.175 205.746 271.982L231.57 272.099Z" fill="#455A64"/>
</g>
<path d="M188.569 261.046C188.569 261.046 175.374 196.118 175.328 194.814L198.97 182.302L208.129 258.5L188.569 261.046Z" fill="#263238"/>
<path d="M218.351 263.227L200.064 150.68V126.416L225.042 128.745C225.36 129.692 233.534 263.39 233.534 263.39L230.957 263.242H218.351" fill="#263238"/>
<path d="M185.69 124.693L175.328 194.814L198.497 189.194L207.943 126.975L185.69 124.693Z" fill="#263238"/>
<path d="M207.128 130.639C207.128 130.639 207.128 130.755 207.128 130.98L207.237 131.989C207.338 132.882 207.485 134.186 207.679 135.87C208.075 139.223 208.673 144.075 209.449 150.067C211.001 162.043 213.33 178.56 215.86 196.816C217.117 205.952 218.274 214.669 219.26 222.578C219.516 224.557 219.718 226.498 220.036 228.368C220.354 230.239 220.603 232.055 220.866 233.802C221.402 237.31 221.899 240.585 222.349 243.566C223.249 249.543 223.956 254.378 224.421 257.724C224.654 259.392 224.825 260.689 224.926 261.605C224.98 262.047 225.011 262.381 225.027 262.614C225.035 262.699 225.035 262.785 225.027 262.87C225.027 262.94 224.988 262.87 224.988 262.87C224.988 262.87 225.042 262.87 225.035 262.87C225.044 262.782 225.044 262.694 225.035 262.606C225.035 262.381 225.035 262.039 224.965 261.597C224.887 260.712 224.732 259.408 224.522 257.716C224.095 254.371 223.42 249.527 222.551 243.551C222.108 240.562 221.627 237.287 221.107 233.778C220.843 232.024 220.569 230.213 220.284 228.345C220.013 226.474 219.819 224.534 219.562 222.555C218.6 214.63 217.451 205.921 216.194 196.793C213.671 178.537 211.288 162.02 209.689 150.051C208.913 144.075 208.261 139.231 207.819 135.87L207.314 131.989C207.26 131.555 207.213 131.213 207.182 130.988C207.151 130.763 207.128 130.639 207.128 130.639Z" fill="#455A64"/>
<path d="M193.187 260.448C193.187 260.448 193.187 260.332 193.149 260.114L193.017 259.144C192.869 258.283 192.66 257.025 192.38 255.411C191.813 252.158 190.991 247.47 189.974 241.688L181.917 196.42C181.679 195.343 181.613 194.235 181.723 193.137C181.863 192.051 182.041 190.956 182.204 189.877C182.541 187.719 182.869 185.593 183.19 183.497C183.85 179.313 184.494 175.285 185.138 171.451C186.411 163.774 187.645 156.882 188.748 151.099C189.85 145.316 190.812 140.659 191.55 137.454C191.899 135.847 192.217 134.605 192.411 133.767C192.504 133.355 192.574 132.991 192.628 132.804C192.683 132.618 192.698 132.478 192.698 132.478C192.698 132.478 192.66 132.579 192.597 132.797C192.535 133.014 192.458 133.34 192.349 133.751C192.132 134.59 191.798 135.824 191.433 137.423C190.657 140.628 189.656 145.285 188.522 151.06C187.389 156.835 186.14 163.728 184.851 171.396C184.199 175.238 183.547 179.267 182.88 183.45C182.554 185.538 182.228 187.673 181.886 189.831C181.731 190.917 181.552 191.988 181.405 193.106C181.297 194.235 181.366 195.374 181.607 196.483C184.789 214.141 187.669 230.138 189.757 241.726C190.812 247.501 191.666 252.182 192.256 255.434L192.954 259.16C193.04 259.571 193.102 259.897 193.149 260.122C193.195 260.347 193.187 260.448 193.187 260.448Z" fill="#455A64"/>
<path d="M200.065 149.888C199.979 149.888 201.058 157.177 202.479 166.126C203.899 175.075 205.118 182.302 205.203 182.302C205.289 182.302 204.21 175.013 202.789 166.064C201.369 157.114 200.15 149.873 200.065 149.888Z" fill="#455A64"/>
<path d="M218.126 263.025C218.322 263.079 218.522 263.113 218.724 263.126C219.112 263.173 219.679 263.227 220.37 263.281C221.759 263.39 223.684 263.491 225.803 263.53C227.922 263.568 229.855 263.53 231.236 263.46C231.935 263.46 232.501 263.398 232.89 263.359C233.092 263.361 233.293 263.332 233.487 263.273C232.739 263.211 231.987 263.198 231.236 263.235C229.839 263.235 227.922 263.235 225.803 263.235C223.684 263.235 221.759 263.126 220.37 263.079C219.624 263.01 218.875 262.992 218.126 263.025Z" fill="#455A64"/>
<path d="M188.569 261.046C188.829 261.062 189.089 261.049 189.346 261.007L191.449 260.79C193.226 260.58 195.671 260.285 198.373 259.928C201.074 259.571 203.511 259.245 205.273 258.989L207.369 258.671C207.632 258.648 207.893 258.596 208.145 258.515C207.887 258.488 207.627 258.488 207.369 258.515L205.265 258.733C203.488 258.934 201.043 259.237 198.342 259.586C195.64 259.936 193.203 260.27 191.433 260.533L189.346 260.852C189.081 260.889 188.82 260.954 188.569 261.046Z" fill="#455A64"/>
<path d="M71.1558 15.7477C71.1558 15.7477 81.4169 11.7426 88.4259 13.7451C95.4349 15.7477 97.5461 20.0788 102.801 19.7295C106.977 19.4346 109.934 17.626 111.44 13.1863C112.946 8.74648 112.946 3.20451 127.204 3.73232C138.117 4.13593 139.22 5.73488 139.22 5.73488L140.392 34.772C134.182 33.794 127.895 33.0877 121.119 34.0424C119.464 34.4004 117.962 35.2658 116.823 36.5181C115.683 37.7703 114.963 39.3469 114.762 41.0281C113.986 47.2375 107.598 49.6437 103.779 49.6437C98.3456 49.6437 95.5513 45.9491 90.9175 44.8779C83.6446 43.1936 71.1558 48.2854 71.1558 48.2854V15.7477Z" fill="#6A3CB5"/>
<path d="M144.831 76.4532L138.56 76.0107L138.723 85.8528L145.452 90.7661L146.135 90.5177L146.523 79.3251L144.831 76.4532Z" fill="#EB996E"/>
<path d="M110.361 38.1251C110.252 38.1251 110.066 33.3128 109.95 27.375C109.833 21.4371 109.833 16.617 109.95 16.617C110.066 16.617 110.245 21.4216 110.361 27.3672C110.477 33.3128 110.47 38.1174 110.361 38.1251Z" fill="#263238"/>
<path d="M98.8732 25.5121C98.9896 25.5121 99.075 30.4875 99.075 36.6116C99.075 42.7357 98.9896 47.7188 98.8732 47.7188C98.7568 47.7188 98.6714 42.7434 98.6714 36.6116C98.6714 30.4797 98.7645 25.5121 98.8732 25.5121Z" fill="#263238"/>
<g opacity="0.2">
<path d="M98.8737 42.8211C98.796 45.0487 98.8737 48.006 98.8737 48.006C100.504 49.0927 103.865 49.7524 105.735 49.1703H105.789C107.026 48.7742 108.14 48.0662 109.024 47.1146C109.908 46.1629 110.531 44.9997 110.835 43.737C111.064 42.8955 111.164 42.0238 111.13 41.1523C110.509 33.7707 109.709 24.5729 109.942 17.1681C108.396 18.4751 106.553 19.3817 104.574 19.8081C102.595 20.2345 100.541 20.1675 98.5942 19.6131L98.8737 42.8211Z" fill="black"/>
</g>
<g opacity="0.6">
<path d="M97.8488 20.6377C97.5133 20.4886 97.1935 20.3066 96.8941 20.0943L94.356 18.5419C91.6166 16.7564 88.5807 15.4737 85.391 14.7542C82.1758 14.1632 78.8654 14.3603 75.743 15.3285C74.4627 15.7818 73.2062 16.2999 71.9785 16.8809C72.2709 16.657 72.5826 16.4596 72.9099 16.291C73.7906 15.8117 74.7097 15.4066 75.6576 15.0802C78.8141 14.0106 82.1925 13.7701 85.4686 14.3816C88.7064 15.1041 91.7758 16.44 94.5112 18.3169C95.5746 18.9999 96.4051 19.5898 96.9795 20.0012C97.2889 20.1851 97.58 20.3982 97.8488 20.6377Z" fill="white"/>
</g>
<g opacity="0.6">
<path d="M123.067 5.81251C123.067 5.88237 122.291 5.81251 121.08 5.9367C119.502 6.12187 117.995 6.69336 116.691 7.60049C115.387 8.50763 114.327 9.7224 113.605 11.1371C113.046 12.2238 112.876 12.9767 112.829 12.9534C112.873 12.2759 113.058 11.615 113.372 11.013C114.051 9.50457 115.126 8.20881 116.484 7.26414C117.841 6.31947 119.43 5.76138 121.08 5.64951C121.746 5.56792 122.423 5.62339 123.067 5.81251Z" fill="white"/>
</g>
<path d="M139.77 2.75433L148.052 232.847L146.624 233.188L138.117 2.863L139.77 2.75433Z" fill="#263238"/>
<path d="M155.085 89.4776L151.98 78.3083L140.942 70.5464C140.942 70.5464 139.654 71.3226 141.625 74.2333L144.101 77.6485C144.101 77.6485 144.024 82.096 146.143 84.704L145.46 90.7272L155.085 89.4776Z" fill="#FFBE9D"/>
<path d="M138.536 78.0444C139.737 78.8243 140.788 79.8127 141.641 80.9628C141.806 81.2895 141.886 81.6526 141.874 82.0184C141.882 82.1757 141.846 82.3322 141.769 82.4696C141.692 82.6071 141.577 82.7198 141.439 82.7946C141.323 82.8413 141.198 82.8593 141.073 82.8472C140.949 82.835 140.829 82.793 140.725 82.7248C140.51 82.595 140.316 82.4327 140.15 82.2435L138.024 80.0469C137.664 79.7247 137.408 79.3035 137.286 78.8361C137.283 78.691 137.318 78.5476 137.386 78.4197C137.455 78.2919 137.555 78.1838 137.678 78.1058C137.8 78.0279 137.94 77.9827 138.085 77.9747C138.23 77.9666 138.375 77.996 138.505 78.0599" fill="#FFBE9D"/>
<path d="M138.521 80.893C139.718 81.6773 140.769 82.665 141.626 83.8114C141.789 84.1386 141.869 84.5013 141.858 84.867C141.867 85.0243 141.831 85.1808 141.754 85.3182C141.677 85.4557 141.562 85.5684 141.424 85.6432C141.306 85.6853 141.18 85.7008 141.055 85.6888C140.93 85.6767 140.81 85.6373 140.702 85.5734C140.489 85.4435 140.298 85.2811 140.135 85.0921L138.032 82.9499C137.677 82.6252 137.423 82.2046 137.302 81.739C137.302 81.5947 137.337 81.4526 137.406 81.3259C137.476 81.1992 137.576 81.0922 137.697 81.0146C137.819 80.9371 137.958 80.8917 138.102 80.8827C138.246 80.8736 138.39 80.9012 138.521 80.9628" fill="#FFBE9D"/>
<path d="M138.979 83.9977C140.179 84.7777 141.231 85.766 142.084 86.9162C142.253 87.2415 142.333 87.6056 142.316 87.9718C142.325 88.1281 142.289 88.2837 142.214 88.4209C142.138 88.5581 142.026 88.6714 141.89 88.748C141.772 88.7923 141.646 88.809 141.52 88.7969C141.395 88.7848 141.275 88.7441 141.168 88.6781C140.954 88.5464 140.76 88.3843 140.593 88.1969L138.467 86.0003C138.112 85.6738 137.857 85.2542 137.729 84.7894C137.726 84.6444 137.761 84.501 137.829 84.3731C137.898 84.2452 137.998 84.1371 138.121 84.0592C138.243 83.9812 138.383 83.936 138.528 83.928C138.673 83.92 138.818 83.9493 138.948 84.0132" fill="#FFBE9D"/>
<path d="M139.041 76.0806C139.527 76.3005 139.965 76.6144 140.329 77.0043C140.515 77.2117 140.639 77.4676 140.686 77.7423C140.732 78.017 140.7 78.2994 140.593 78.5567C140.549 78.6566 140.48 78.7438 140.393 78.8103C140.306 78.8768 140.204 78.9203 140.096 78.937C139.944 78.9443 139.793 78.9065 139.662 78.8283C139.36 78.6896 139.076 78.515 138.815 78.3083C138.559 78.0695 138.323 77.8099 138.109 77.5321C137.962 77.4182 137.861 77.2552 137.824 77.0728C137.787 76.8905 137.816 76.7009 137.907 76.5386C138.07 76.166 138.233 75.9487 139.041 76.0418" fill="#FFBE9D"/>
<path d="M154.441 83.8968L171.198 98.9471L165.75 110.962L146.523 90.4478L154.441 83.8968Z" fill="#FFBE9D"/>
<path d="M153.773 83.2448L168.683 94.5927C168.683 94.5927 182.554 70.9345 183.78 69.4675C185.007 68.0005 188.119 66.4249 188.119 66.4249L186.396 96.7505C186.396 96.7505 178.898 115.899 168.598 114.859C160.712 114.083 147.09 93.2654 147.09 93.2654L153.773 83.2448Z" fill="#6A3CB5"/>
<g opacity="0.2">
<path d="M168.404 94.2201C167.382 95.8147 166.718 97.612 166.458 99.4881C166.198 101.364 166.348 103.274 166.898 105.087C166.975 105.471 167.19 105.813 167.503 106.049C167.769 106.166 168.069 106.179 168.344 106.087C168.619 105.996 168.851 105.805 168.994 105.552C169.26 105.034 169.394 104.458 169.382 103.876C169.627 104.437 170.003 104.931 170.476 105.32C170.722 105.503 171.023 105.597 171.329 105.586C171.636 105.574 171.929 105.459 172.16 105.257C172.657 104.714 172.378 103.853 172.083 103.177C170.81 100.3 169.54 97.4232 168.272 94.5461" fill="black"/>
</g>
<path d="M157.522 86.6368C156.501 88.6109 155.36 90.5213 154.107 92.3572C152.968 94.2646 151.716 96.1023 150.358 97.8604C151.376 95.8842 152.517 93.9737 153.773 92.1399C154.911 90.232 156.163 88.3942 157.522 86.6368Z" fill="#263238"/>
<path d="M153.726 86.2254C153.726 86.1866 153.881 85.9925 154.223 86.1167C154.322 86.1555 154.411 86.2183 154.48 86.2996C154.549 86.3809 154.597 86.4781 154.619 86.5824C154.637 86.7208 154.612 86.8614 154.548 86.9853C154.484 87.1093 154.384 87.2106 154.26 87.2757C154.137 87.3408 153.996 87.3666 153.858 87.3495C153.719 87.3324 153.589 87.2732 153.486 87.1801C153.413 87.1022 153.361 87.0076 153.334 86.9047C153.307 86.8017 153.305 86.6937 153.33 86.5902C153.416 86.2331 153.687 86.1866 153.695 86.2409C153.703 86.2952 153.602 86.4039 153.618 86.6212C153.633 86.8385 153.804 87.0559 154.068 86.9162C154.118 86.8912 154.161 86.8525 154.191 86.8045C154.221 86.7565 154.237 86.7011 154.237 86.6445C154.237 86.5879 154.221 86.5325 154.191 86.4845C154.161 86.4365 154.118 86.3978 154.068 86.3728C153.92 86.2409 153.757 86.2719 153.726 86.2254Z" fill="#263238"/>
<path d="M168.699 101.765C167.835 99.4582 167.797 96.9242 168.59 94.5927C168.706 94.5927 168.388 96.2072 168.427 98.1864C168.466 100.166 168.815 101.734 168.699 101.765Z" fill="#263238"/>
<path d="M171.587 101.664C170.066 99.5709 169.029 97.1663 168.552 94.6237C169.111 95.7747 169.611 96.9535 170.05 98.1554C170.88 100.088 171.688 101.578 171.587 101.664Z" fill="#263238"/>
<path d="M219.314 63.5452L217.079 59.0666H200.779L198.218 64.1273L188.127 66.4093L183.788 131.361C183.766 132.174 183.965 132.979 184.363 133.689L223.948 135.242L225.555 135.901C226.975 135.024 226.09 131.407 226.106 129.692L226.618 97.5266L234.45 71.8194L219.314 63.5452Z" fill="#6A3CB5"/>
<g opacity="0.2">
<path d="M202.417 65.7729L205.296 62.8933L208.541 70.7017C212.266 68.5127 215.811 66.0314 219.143 63.2814L208.176 66.7975C207.244 64.3447 206.318 61.8868 205.397 59.4237C204.741 61.6583 203.813 63.8037 202.634 65.8117" fill="black"/>
</g>
<path d="M248.366 144.967L237.694 145.518V114.89L226.656 97.5344L234.488 71.8271C236.102 72.4636 248.265 102.999 251.362 111.296C251.811 112.49 252.007 113.764 251.937 115.037L248.366 144.967Z" fill="#6A3CB5"/>
<path d="M188.119 79.8451C188.235 79.8451 187.7 86.14 186.939 93.8708C186.179 101.602 185.464 107.842 185.387 107.842C185.309 107.842 185.806 101.547 186.567 93.8087C187.327 86.0701 188.01 79.7986 188.119 79.8451Z" fill="#263238"/>
<path d="M205.381 59.4392C204.86 61.2244 204.211 62.9701 203.441 64.6629L203.224 65.1907C203.15 65.3958 203.028 65.5798 202.867 65.7263C202.767 65.8041 202.646 65.8501 202.521 65.8584C202.395 65.8667 202.269 65.8369 202.16 65.7729C201.974 65.6797 201.842 65.5788 201.702 65.4934L200.235 64.4999C199.766 64.221 199.333 63.8846 198.947 63.4986C199.457 63.6998 199.941 63.9603 200.39 64.2748L201.904 65.1907C202.191 65.377 202.486 65.5866 202.618 65.4314C202.817 65.1553 202.969 64.8485 203.068 64.5232C203.713 62.7737 204.486 61.0744 205.381 59.4392Z" fill="#263238"/>
<path d="M218.344 63.421C217.541 63.8204 216.708 64.1552 215.852 64.4223C214.3 64.9967 212.142 65.7574 209.751 66.5724L208.447 67.0148L208.269 67.0769L208.199 66.9061C207.361 64.8725 206.647 63.0718 206.127 61.7678C205.821 61.0864 205.574 60.3801 205.389 59.6565C205.769 60.3005 206.098 60.9726 206.375 61.6669C206.942 62.9398 207.71 64.725 208.572 66.7509L208.315 66.6422L209.619 66.192C212.01 65.4158 214.183 64.6397 215.759 64.1507C216.601 63.8438 217.465 63.6 218.344 63.421Z" fill="#263238"/>
<path d="M232.789 72.7508C232.789 72.8672 230.53 73.527 227.868 74.6757C225.205 75.8245 223.21 77.144 223.133 77.0043C223.496 76.6272 223.915 76.3079 224.375 76.0573C226.504 74.7049 228.821 73.6744 231.252 72.9992C231.748 72.8373 232.267 72.7536 232.789 72.7508Z" fill="#263238"/>
<path d="M205.382 59.4392C205.391 59.5035 205.391 59.5689 205.382 59.6332C205.382 59.7885 205.382 59.9748 205.382 60.2076C205.382 60.7121 205.428 61.4495 205.436 62.4042C205.436 64.3059 205.436 67.0613 205.312 70.4688C205.071 77.2837 204.217 86.6756 202.859 96.9756C202.199 102.137 201.47 107.066 200.981 111.506C200.513 115.462 200.295 119.444 200.329 123.428C200.361 126.112 200.574 128.791 200.965 131.446C201.082 132.393 201.229 133.115 201.307 133.612C201.307 133.837 201.369 134.023 201.392 134.178C201.401 134.243 201.401 134.308 201.392 134.372C201.366 134.313 201.348 134.25 201.338 134.186C201.299 134.031 201.26 133.852 201.206 133.627C201.113 133.138 200.934 132.416 200.794 131.469C200.337 128.812 200.077 126.124 200.018 123.428C199.938 119.433 200.124 115.437 200.577 111.467C201.051 106.981 201.765 102.083 202.424 96.929C203.783 86.629 204.675 77.2604 204.994 70.461C205.164 67.0613 205.219 64.3059 205.25 62.4042C205.25 61.4728 205.25 60.7432 205.25 60.2076C205.25 59.9748 205.25 59.7885 205.25 59.641C205.282 59.5666 205.326 59.4983 205.382 59.4392Z" fill="#263238"/>
<path d="M248.949 140.279C247.063 140.386 245.172 140.36 243.29 140.201C241.403 140.178 239.52 140.02 237.655 139.728C239.538 139.615 241.426 139.639 243.306 139.798C245.196 139.827 247.081 139.987 248.949 140.279Z" fill="#263238"/>
<path d="M239.479 141.474C239.479 141.474 239.479 141.622 239.479 141.761C239.479 141.901 239.65 141.987 239.79 141.87C239.93 141.754 239.883 141.637 239.751 141.544C239.619 141.451 239.51 141.49 239.472 141.451C239.433 141.412 239.541 141.226 239.836 141.272C239.922 141.286 240.002 141.32 240.07 141.373C240.138 141.426 240.191 141.496 240.224 141.575C240.261 141.683 240.264 141.8 240.232 141.91C240.2 142.02 240.136 142.117 240.047 142.189C239.958 142.261 239.849 142.304 239.735 142.312C239.621 142.32 239.508 142.293 239.409 142.235C239.34 142.183 239.284 142.115 239.246 142.036C239.208 141.958 239.19 141.872 239.192 141.785C239.246 141.49 239.456 141.42 239.479 141.474Z" fill="#263238"/>
<g opacity="0.2">
<path d="M226.788 97.4491C225.624 95.3534 224.464 93.2577 223.31 91.162C221.937 102.254 222.728 113.507 225.639 124.297C226.001 115.392 226.361 106.489 226.718 97.5888" fill="black"/>
</g>
<g opacity="0.2">
<path d="M178.207 78.479C179.256 79.9736 180.767 81.0813 182.508 81.6313C184.249 82.1812 186.123 82.1427 187.839 81.5217C188.093 81.9103 188.438 82.2308 188.844 82.4554C189.249 82.6801 189.704 82.8018 190.168 82.8102C191.087 82.8232 191.999 82.6461 192.846 82.2901C196.098 81.0521 198.989 79.0213 201.257 76.3822C203.525 73.743 205.097 70.579 205.832 67.1778C200.81 68.9397 197.425 73.8064 192.497 75.8245C190.558 76.6342 188.448 76.9454 186.359 76.7298C184.27 76.5143 182.268 75.7787 180.536 74.5903L178.207 78.479Z" fill="black"/>
</g>
<path d="M209.123 85.9071C209.33 85.8699 209.541 85.8543 209.752 85.8606L211.607 85.814C213.221 85.814 215.542 85.7441 218.344 85.7286H218.53V85.9149C218.344 88.3677 218.142 91.2085 217.917 94.2356V94.3443L217.816 94.3986L217.405 94.6159L212.895 96.9911L212.779 97.0454L212.678 96.9678L208.494 93.5448L208.432 93.4905V93.4051C208.634 91.1542 208.797 89.2835 208.913 87.8942C208.975 87.2965 209.022 86.7998 209.069 86.4039C209.073 86.2362 209.097 86.0696 209.138 85.9071C209.153 86.0957 209.153 86.2852 209.138 86.4738C209.138 86.8774 209.092 87.3897 209.069 88.0261C208.991 89.3922 208.89 91.2395 208.766 93.4594L208.704 93.3197L212.926 96.6961H212.717L217.211 94.3132L217.63 94.0959L217.521 94.2589L218.181 85.946L218.36 86.1322C215.635 86.1322 213.353 86.0779 211.731 86.0469L209.837 86.0003C209.597 85.9851 209.359 85.9539 209.123 85.9071Z" fill="#263238"/>
<path d="M218.095 89.6328C215.02 89.8451 211.932 89.788 208.866 89.4621C210.399 89.2866 211.945 89.2476 213.485 89.3456C215.027 89.308 216.569 89.404 218.095 89.6328Z" fill="#FAFAFA"/>
<path d="M218.025 91.2318C216.48 91.4096 214.921 91.4485 213.368 91.3482C211.823 91.3898 210.278 91.2937 208.75 91.061C210.296 90.8886 211.854 90.8496 213.407 90.9446C214.952 90.9073 216.497 91.0034 218.025 91.2318Z" fill="#FAFAFA"/>
<path d="M189.539 134.038C189.539 134.147 188.709 134.038 188.173 133.192C187.638 132.346 187.801 131.57 187.91 131.64C188.018 131.71 188.049 132.339 188.507 132.998C188.965 133.658 189.578 133.93 189.539 134.038Z" fill="#263238"/>
<path d="M190.572 133.604C189.972 133.165 189.57 132.506 189.454 131.772C189.329 131.424 189.276 131.054 189.296 130.685C189.316 130.316 189.409 129.955 189.57 129.622C189.687 129.622 189.57 130.577 189.85 131.671C190.129 132.765 190.688 133.534 190.572 133.604Z" fill="#263238"/>
<path d="M220.463 129.141C220.539 130.265 220.328 131.39 219.848 132.41C219.369 133.43 218.637 134.311 217.723 134.97C218.376 134.103 218.965 133.19 219.485 132.238C219.886 131.231 220.213 130.196 220.463 129.141Z" fill="#263238"/>
<path d="M204.186 62.7535H206.328L207.244 64.3447L206.344 66.8285L204.209 66.5879L203.371 64.7949L204.186 62.7535Z" fill="#455A64"/>
<path d="M204.21 66.5879C204.21 66.5879 191.325 74.8853 184.743 71.571C178.161 68.2566 169.995 64.1972 162.645 65.1674C158.345 65.6921 154.179 67.0079 150.358 69.0484L148.029 74.6447L153.983 76.7869C153.983 76.7869 162.66 72.5955 168.971 73.721C173.38 74.4972 181.848 78.9991 187.553 78.5722C193.258 78.1453 201.136 74.0858 206.321 66.7974L204.21 66.5879Z" fill="#455A64"/>
<path d="M205.769 67.5115C205.47 67.434 205.186 67.3053 204.931 67.1312C204.645 66.9997 204.382 66.8213 204.155 66.6034C204.458 66.681 204.744 66.8125 205.001 66.9915C205.286 67.1183 205.546 67.2943 205.769 67.5115Z" fill="#263238"/>
<path d="M207.042 64.0653C206.604 64.5374 206.126 64.971 205.614 65.3615C205.131 65.7955 204.611 66.1876 204.062 66.5335C204.5 66.0615 204.977 65.6278 205.49 65.2373C205.973 64.8034 206.492 64.4113 207.042 64.0653Z" fill="#263238"/>
<path d="M206.134 64.8803C205.288 64.3409 204.588 63.6027 204.093 62.7302C204.132 62.7302 204.535 63.227 205.094 63.8169C205.653 64.4068 206.157 64.8415 206.134 64.8803Z" fill="#263238"/>
<path d="M195.492 76.1039C195.37 75.8941 195.273 75.6699 195.205 75.4364C195.042 75.0173 194.833 74.4351 194.615 73.7909C194.398 73.1467 194.204 72.5568 194.072 72.1298C193.993 71.8999 193.933 71.6636 193.894 71.4235C194.015 71.6343 194.111 71.8583 194.181 72.091C194.344 72.5102 194.553 73.0923 194.771 73.7366C194.988 74.3808 195.182 74.9707 195.306 75.3976C195.39 75.6268 195.452 75.8632 195.492 76.1039Z" fill="#FAFAFA"/>
<path d="M198.714 74.1712C198.274 73.6104 197.88 73.0161 197.534 72.3937C197.143 71.7987 196.795 71.1761 196.494 70.5309C197.326 71.6857 198.068 72.9027 198.714 74.1712Z" fill="#FAFAFA"/>
<path d="M201.632 71.9047C201.155 71.5528 200.713 71.1551 200.313 70.7172C199.873 70.3195 199.472 69.8802 199.117 69.4054C200.026 70.1643 200.868 71.0005 201.632 71.9047Z" fill="#FAFAFA"/>
<path d="M204.046 69.5296C203.687 69.3267 203.354 69.0818 203.053 68.8C202.721 68.5529 202.422 68.2662 202.16 67.9462C202.525 68.1403 202.859 68.3861 203.154 68.6758C203.491 68.9154 203.792 69.203 204.046 69.5296Z" fill="#FAFAFA"/>
<path d="M190.905 78.0987C190.779 77.167 190.703 76.2289 190.68 75.2889C190.601 74.352 190.577 73.4111 190.61 72.4714C190.742 73.4027 190.82 74.3409 190.843 75.2812C190.918 76.2184 190.939 77.1591 190.905 78.0987Z" fill="#FAFAFA"/>
<path d="M186.489 78.7895C186.489 78.7895 186.605 77.3458 186.846 75.5761C187.086 73.8064 187.319 72.3705 187.358 72.3782C187.299 73.4548 187.182 74.5275 187.009 75.5916C186.892 76.6661 186.719 77.7335 186.489 78.7895Z" fill="#FAFAFA"/>
<path d="M183.881 71.0664C183.92 71.0664 183.508 72.6188 182.95 74.5282C182.391 76.4376 181.917 77.9512 181.871 77.9434C181.824 77.9357 182.243 76.3911 182.794 74.4816C183.345 72.5722 183.834 71.0587 183.881 71.0664Z" fill="#FAFAFA"/>
<path d="M180.877 69.6538C180.924 69.6538 180.427 71.2605 179.783 73.201C179.139 75.1415 178.572 76.7171 178.525 76.7016C178.479 76.6861 178.976 75.1026 179.628 73.1544C180.28 71.2062 180.839 69.6383 180.877 69.6538Z" fill="#FAFAFA"/>
<path d="M176.539 67.6202C176.539 67.6202 176.143 69.3588 175.568 71.5011C174.994 73.6434 174.49 75.32 174.451 75.3122C174.412 75.3044 174.839 73.5735 175.413 71.4313C175.988 69.289 176.492 67.6124 176.539 67.6202Z" fill="#FAFAFA"/>
<path d="M171.889 66.355C171.935 66.355 171.594 68.0704 171.113 70.1661C170.631 72.2618 170.243 73.9539 170.197 73.9384C170.15 73.9228 170.492 72.223 170.973 70.1351C171.454 68.0471 171.85 66.3473 171.889 66.355Z" fill="#FAFAFA"/>
<path d="M167.201 65.5478C167.248 65.5478 167.302 67.3563 167.317 69.5917C167.333 71.8271 167.317 73.6512 167.271 73.6512C167.224 73.6512 167.178 71.8349 167.162 69.5995C167.147 67.3641 167.162 65.5478 167.201 65.5478Z" fill="#FAFAFA"/>
<path d="M163.437 73.8064C163.398 73.7002 163.367 73.5912 163.343 73.4804C163.281 73.1777 163.219 72.875 163.149 72.5645C162.994 71.7883 162.808 70.725 162.637 69.5374C162.466 68.3498 162.334 67.2709 162.265 66.487C162.265 66.1765 162.21 65.8738 162.187 65.5633C162.167 65.4504 162.167 65.3348 162.187 65.2218C162.218 65.3308 162.239 65.4426 162.249 65.5556C162.249 65.8583 162.334 66.1687 162.373 66.4792C162.513 67.4495 162.645 68.4352 162.792 69.5141C162.94 70.593 163.111 71.5788 163.266 72.549L163.406 73.4649C163.433 73.5765 163.444 73.6917 163.437 73.8064Z" fill="#FAFAFA"/>
<path d="M159.268 74.668C159.229 74.668 158.593 72.875 157.848 70.6473C157.103 68.4197 156.544 66.5879 156.582 66.5723C156.621 66.5568 157.266 68.3576 158.003 70.593C158.74 72.8284 159.315 74.6524 159.268 74.668Z" fill="#FAFAFA"/>
<path d="M155.488 76.003C155.449 76.003 154.619 74.3575 153.633 72.2773C152.647 70.1971 151.879 68.505 151.917 68.4818C151.956 68.4585 152.795 70.135 153.78 72.2075C154.766 74.2799 155.527 75.9642 155.488 76.003Z" fill="#FAFAFA"/>
<path d="M150.583 75.5683C150.201 75.1397 149.892 74.6522 149.667 74.1246C149.389 73.6234 149.202 73.0768 149.116 72.5102C149.162 72.5102 149.403 73.2165 149.807 74.0625C150.21 74.9086 150.622 75.5373 150.583 75.5683Z" fill="#FAFAFA"/>
</svg>
